<!DOCTYPE svg PUBLIC "-//W3C//DTD SVG 1.1//EN" "http://www.w3.org/Graphics/SVG/1.1/DTD/svg11.dtd">

<!-- Uploaded to: SVG Repo, www.svgrepo.com, Transformed by: SVG Repo Mixer Tools -->
<svg fill="#fff" height="800px" width="800px" version="1.1" id="Capa_1" xmlns="http://www.w3.org/2000/svg" xmlns:xlink="http://www.w3.org/1999/xlink" viewBox="-20.19 -20.19 328.78 328.78" xml:space="preserve" stroke="#db0000">

<g id="SVGRepo_bgCarrier" stroke-width="0"/>

<g id="SVGRepo_tracerCarrier" stroke-linecap="round" stroke-linejoin="round" stroke="#FF6E31" stroke-width="34.607639999999996"> <path d="M203.524,9.355c-22.569,0-43.743,8.976-59.325,24.197C128.617,18.331,107.443,9.355,84.873,9.355 C38.074,9.355,0,47.429,0,94.229c0,37.748,13.759,71.203,43.298,105.287c23.656,27.296,87.031,70.172,89.718,71.983l11.184,7.543 l11.184-7.543c2.687-1.812,66.061-44.688,89.718-71.983c29.539-34.084,43.297-67.54,43.297-105.287 C288.397,47.429,250.323,9.355,203.524,9.355z"/> </g>

<g id="SVGRepo_iconCarrier"> <path d="M203.524,9.355c-22.569,0-43.743,8.976-59.325,24.197C128.617,18.331,107.443,9.355,84.873,9.355 C38.074,9.355,0,47.429,0,94.229c0,37.748,13.759,71.203,43.298,105.287c23.656,27.296,87.031,70.172,89.718,71.983l11.184,7.543 l11.184-7.543c2.687-1.812,66.061-44.688,89.718-71.983c29.539-34.084,43.297-67.54,43.297-105.287 C288.397,47.429,250.323,9.355,203.524,9.355z"/> </g>

</svg>